<?xml version="1.0" encoding="utf-8"?>
<!-- Generator: Adobe Illustrator 19.1.0, SVG Export Plug-In . SVG Version: 6.00 Build 0)  -->
<svg version="1.1" id="Layer_1" xmlns="http://www.w3.org/2000/svg" xmlns:xlink="http://www.w3.org/1999/xlink" x="0px" y="0px"
	 viewBox="-255 347 100 100" style="enable-background:new -255 347 100 100;" xml:space="preserve">
<style type="text/css">
	.st0{fill:#BE1E2D;}
	.st1{fill:#E80718;}
	.st2{fill:#231F20;}
	.st3{fill:#F69240;}
	.st4{fill:none;stroke:#FFFFFF;stroke-miterlimit:10;}
</style>
<g>
	<path class="st0" d="M-261.8,385c0,18.2-21,31.9-32.9,57.5c-12-25.2-32.9-39.3-32.9-57.5c0-18.2,14.7-32.9,32.9-32.9
		S-261.8,366.8-261.8,385z"/>
	<path class="st1" d="M-264.8,385.9c0,16.5-19.1,29-29.9,52.2c-10.9-22.9-29.9-35.7-29.9-52.2c0-16.5,13.4-29.9,29.9-29.9
		S-264.8,369.3-264.8,385.9z"/>
	<circle class="st2" cx="-294.7" cy="385.1" r="17.4"/>
</g>
<rect x="-248.7" y="362" class="st3" width="88" height="57.2"/>
<line class="st4" x1="-248.7" y1="362" x2="-204.7" y2="390.6"/>
<line class="st4" x1="-204.7" y1="390.6" x2="-160.7" y2="362"/>
<line class="st4" x1="-248.7" y1="362" x2="-160.7" y2="362"/>
<line class="st4" x1="-160.7" y1="362" x2="-160.7" y2="419.2"/>
<line class="st4" x1="-161.5" y1="419.2" x2="-248.7" y2="419.2"/>
<line class="st4" x1="-248.7" y1="419.2" x2="-248.7" y2="362"/>
</svg>
