<?xml version="1.0" encoding="iso-8859-1"?>
<!-- Generator: Adobe Illustrator 17.1.0, SVG Export Plug-In . SVG Version: 6.00 Build 0)  -->
<!DOCTYPE svg PUBLIC "-//W3C//DTD SVG 1.1//EN" "http://www.w3.org/Graphics/SVG/1.1/DTD/svg11.dtd">
<svg version="1.1" id="Layer_1" xmlns="http://www.w3.org/2000/svg" xmlns:xlink="http://www.w3.org/1999/xlink" x="0px" y="0px"
	 viewBox="0 0 392.941 356.471" style="enable-background:new 0 0 392.941 356.471;" xml:space="preserve">
<g>
	<g>
		
			<ellipse transform="matrix(0.7511 0.6602 -0.6602 0.7511 107.0255 -119.8238)" style="fill:#F69240;" cx="212.43" cy="82.032" rx="11.979" ry="27.182"/>
		
			<ellipse transform="matrix(0.9983 -0.058 0.058 0.9983 -8.1068 6.5819)" style="fill:#F69240;" cx="109.31" cy="142.918" rx="32.114" ry="2.064"/>
		<path style="fill:#F69240;" d="M243.842,92.706c0.141-0.488,0.284-0.98,0.425-1.467c0.536-1.903,1.064-3.801,1.737-5.627
			c0.316-0.922,0.631-1.842,0.946-2.758c0.318-0.915,0.713-1.791,1.062-2.684c0.355-0.892,0.709-1.78,1.062-2.665
			c0.396-0.863,0.79-1.723,1.183-2.579c3.185-6.826,6.987-13.079,11.383-18.393c4.383-5.318,9.209-9.814,14.137-13.389
			c4.937-3.561,9.901-6.294,14.503-8.326c4.613-2.008,8.828-3.418,12.372-4.353c3.549-0.908,6.404-1.469,8.367-1.746
			c1.963-0.291,3.028-0.369,3.028-0.369s-1.054-0.173-3.058-0.272c-2-0.076-4.963-0.166-8.718,0.199
			c-3.751,0.357-8.322,1.036-13.444,2.479c-5.114,1.445-10.766,3.677-16.551,6.943c-5.763,3.288-11.573,7.719-16.918,13.234
			c-5.346,5.514-10.08,12.19-13.981,19.566c-0.486,0.924-0.973,1.853-1.462,2.784c-0.437,0.954-0.875,1.912-1.315,2.874
			c-0.424,0.968-0.895,1.925-1.284,2.913c-0.384,0.99-0.77,1.983-1.157,2.98c-0.815,1.983-1.474,4.023-2.14,6.074
			c-0.371,1.169-0.745,2.348-1.118,3.524v-0.011c0,0-0.116,0.144-0.122,0.397c-0.216,0.682-0.431,1.359-0.648,2.043
			c-0.315,0.985-0.615,2.014-0.943,2.968l-1.001,2.817c-0.638,1.88-1.383,3.766-2.125,5.663c-1.463,3.793-3.144,7.498-4.949,11.125
			c-3.549,7.287-7.898,14.099-12.832,20.191c-2.454,3.065-5.151,5.848-7.906,8.49c-1.44,1.243-2.808,2.572-4.321,3.68
			c-0.745,0.571-1.469,1.167-2.215,1.725c-0.764,0.531-1.526,1.06-2.284,1.587c-0.747,0.549-1.528,1.032-2.318,1.493
			c-0.784,0.474-1.565,0.946-2.342,1.415c-0.806,0.416-1.608,0.83-2.406,1.242c-0.79,0.432-1.587,0.842-2.41,1.182
			c-0.814,0.363-1.624,0.725-2.43,1.084c-0.811,0.349-1.647,0.617-2.463,0.929c-1.625,0.653-3.295,1.096-4.93,1.6
			c-6.578,1.9-13.145,2.612-19.247,2.678c-6.113,0.09-11.779-0.53-16.764-1.393c-2.516-0.342-4.812-0.962-6.989-1.368
			c-2.149-0.504-4.113-1.037-5.902-1.491c-1.757-0.544-3.336-1.022-4.722-1.418c-1.384-0.401-2.526-0.84-3.473-1.147
			c-1.895-0.627-2.906-0.962-2.906-0.962s0.918,0.539,2.641,1.55c1.72,1.027,4.3,2.425,7.678,4.068
			c1.714,0.754,3.608,1.624,5.706,2.5c2.123,0.803,4.411,1.737,6.946,2.483c2.506,0.855,5.251,1.497,8.154,2.211
			c1.472,0.273,2.981,0.554,4.526,0.841c1.555,0.25,3.163,0.41,4.804,0.624c6.574,0.647,13.895,0.579,21.485-0.951
			c1.892-0.393,3.82-0.783,5.718-1.385c0.952-0.287,1.927-0.533,2.879-0.864c0.949-0.344,1.903-0.691,2.862-1.039
			c1.94-0.655,3.778-1.607,5.696-2.437c0.922-0.488,1.848-0.979,2.779-1.471c0.938-0.484,1.866-0.993,2.757-1.569
			c7.281-4.382,14.051-10.141,19.741-16.896c5.77-6.698,10.601-14.267,14.53-22.18c0.794-1.626,1.555-3.265,2.291-4.912
			c0.416,1.846,0.888,3.739,1.447,5.662c0.755,2.748,1.737,5.536,2.792,8.331c1.109,2.78,2.32,5.566,3.74,8.25l1.059,2.01
			l1.152,1.955c0.738,1.313,1.599,2.551,2.418,3.791c0.805,1.249,1.75,2.395,2.601,3.569c0.898,1.145,1.852,2.223,2.75,3.305
			c0.97,1.02,1.924,2.023,2.858,3.005c0.992,0.917,1.963,1.813,2.908,2.686c0.996,0.808,1.964,1.593,2.901,2.353
			c0.943,0.747,1.926,1.376,2.827,2.027c0.893,0.662,1.815,1.202,2.683,1.722c0.873,0.512,1.67,1.04,2.469,1.455
			c1.611,0.805,2.973,1.567,4.153,2.08c2.359,1.007,3.706,1.583,3.706,1.583s-1.265-0.73-3.48-2.008
			c-1.099-0.644-2.355-1.56-3.828-2.531c-0.73-0.497-1.449-1.111-2.236-1.709c-0.782-0.606-1.608-1.232-2.396-1.979
			c-0.796-0.735-1.664-1.448-2.483-2.275c-0.807-0.833-1.641-1.694-2.499-2.579c-0.796-0.936-1.614-1.897-2.45-2.879
			c-0.768-1.031-1.553-2.084-2.351-3.155c-0.723-1.125-1.492-2.237-2.202-3.406c-0.663-1.201-1.413-2.36-2.021-3.617
			c-0.622-1.248-1.28-2.482-1.818-3.787l-0.847-1.933l-0.754-1.978c-1.012-2.63-1.816-5.336-2.528-8.009
			c-0.659-2.693-1.252-5.349-1.64-7.959c-0.429-2.598-0.705-5.132-0.905-7.534c-0.188-2.405-0.29-4.68-0.316-6.78
			c-0.067-4.198,0.159-7.68,0.367-10.074c0.113-1.194,0.219-2.125,0.304-2.731"/>
		<path style="fill:#F69240;" d="M87.931,138.567c-2.203-2.223-4.43-4.419-6.699-6.564c-1.601-1.542-3.226-3.055-4.853-4.567
			l5.18-0.246c2.597-0.125,5.19-0.309,7.785-0.461c2.596-0.146,5.188-0.337,7.779-0.535c2.591-0.199,5.185-0.373,7.775-0.591
			l7.768-0.678c2.591-0.211,5.175-0.492,7.762-0.746c2.587-0.256,5.174-0.514,7.756-0.819c1.781-0.204,3.562-0.405,5.343-0.616
			c-1.224,1.582-2.452,3.16-3.654,4.761c-1.715,2.265-3.395,4.559-5.047,6.877c2.023-2.003,4.017-4.031,5.977-6.087
			c1.968-2.049,3.912-4.12,5.837-6.206c0.174-0.189,0.278-0.445,0.27-0.722c-0.017-0.562-0.487-1.004-1.049-0.986l-0.094,0.003
			c-2.601,0.08-5.197,0.226-7.794,0.349c-2.598,0.114-5.193,0.275-7.787,0.438c-2.594,0.164-5.191,0.303-7.781,0.511l-7.776,0.579
			c-2.591,0.2-5.179,0.445-7.769,0.666c-2.59,0.221-5.179,0.45-7.764,0.722c-2.586,0.267-5.174,0.503-7.758,0.796l-7.751,0.888
			l-0.091,0.01c-0.282,0.033-0.551,0.175-0.738,0.417c-0.371,0.479-0.283,1.167,0.195,1.537c2.468,1.911,4.921,3.841,7.422,5.713
			C82.858,134.905,85.383,136.749,87.931,138.567z"/>
		<path style="fill:#F69240;" d="M96.782,113.178c1.034,0.714,2.076,1.274,3.071,1.702c1.986,0.869,3.725,1.347,4.943,1.648
			c1.221,0.294,1.932,0.403,1.932,0.403l0.024-0.128c0,0-0.699-0.14-1.899-0.487c-1.194-0.352-2.898-0.906-4.806-1.847
			c-0.956-0.463-1.945-1.057-2.902-1.784c-0.947-0.732-1.875-1.616-2.505-2.726c-0.634-1.102-0.904-2.426-0.692-3.732
			c0.205-1.308,0.791-2.566,1.517-3.735c0.402-0.564,0.805-1.129,1.246-1.663c0.474-0.512,0.908-1.049,1.403-1.53
			c0.499-0.477,0.994-0.951,1.483-1.419c0.516-0.442,1.027-0.879,1.528-1.308c0.999-0.866,2.024-1.639,2.969-2.406
			c0.977-0.73,1.875-1.456,2.752-2.064c0.877-0.608,1.656-1.205,2.361-1.715c0.715-0.495,1.343-0.921,1.849-1.292
			c1.023-0.723,1.597-1.158,1.597-1.158l-0.065-0.112c0,0-0.65,0.306-1.768,0.879c-1.137,0.543-2.698,1.428-4.548,2.543
			c-0.924,0.558-1.88,1.237-2.917,1.916c-1.021,0.705-2.05,1.52-3.103,2.378c-0.506,0.455-1.02,0.918-1.541,1.387
			c-0.501,0.492-0.986,1.016-1.484,1.531c-0.492,0.522-0.93,1.11-1.399,1.665c-0.441,0.582-0.846,1.203-1.245,1.821
			c-0.738,1.281-1.341,2.68-1.521,4.172c-0.192,1.49,0.18,3.025,0.93,4.223C94.737,111.549,95.756,112.461,96.782,113.178z"/>
		<polygon style="fill:#F69240;" points="238.405,132.124 232.022,136.473 226.797,135.035 228.034,140.791 232.076,138.62 
			237.984,140.05 		"/>
		<path style="fill:#F69240;" d="M233.384,141.847c0,0,0.523,1.054,1.568,2.554c0.531,0.733,1.158,1.593,1.927,2.43
			c0.747,0.859,1.633,1.689,2.563,2.47c0.492,0.352,0.953,0.757,1.466,1.063c0.512,0.307,0.995,0.655,1.519,0.881
			c0.513,0.249,1.002,0.514,1.506,0.664c0.497,0.163,0.955,0.377,1.41,0.447c0.45,0.098,0.862,0.189,1.228,0.269
			c0.373,0.032,0.698,0.06,0.966,0.083c0.539,0.043,0.847,0.068,0.847,0.068s-0.309-0.003-0.849-0.009
			c-0.271-0.004-0.601-0.01-0.979-0.016c-0.375-0.055-0.797-0.117-1.258-0.185c-0.47-0.04-0.945-0.223-1.466-0.354
			c-0.527-0.119-1.043-0.353-1.589-0.572c-0.557-0.197-1.075-0.516-1.626-0.797c-0.553-0.281-1.053-0.661-1.589-0.992
			c-1.016-0.737-1.994-1.535-2.829-2.368c-0.858-0.812-1.569-1.656-2.176-2.381c-1.183-1.462-1.845-2.584-1.845-2.584
			S232.336,141.403,233.384,141.847z"/>
	</g>
	<g>
		<path style="fill:#F69240;" d="M78.347,278.377l1.165,1.009c-1.761,2.097-4.453,3.418-7.456,3.418
			c-5.282,0-9.553-4.117-9.553-9.217s4.272-9.242,9.553-9.242c3.003,0,5.695,1.347,7.456,3.443l-1.165,1.01
			c-1.476-1.812-3.728-3.004-6.291-3.004c-4.402,0-8,3.418-8,7.792c0,4.349,3.599,7.767,8,7.767
			C74.619,281.355,76.871,280.19,78.347,278.377z"/>
		<path style="fill:#F69240;" d="M113.114,277.73h-9.993l-2.174,4.971h-1.605l8.31-18.251h0.958l8.311,18.251h-1.605L113.114,277.73
			z M103.69,276.462h8.879l-4.452-9.994L103.69,276.462z"/>
		<path style="fill:#F69240;" d="M149.124,265.795h-6.498V282.7h-1.528v-16.905h-6.447v-1.346h14.472V265.795z"/>
		<path style="fill:#F69240;" d="M183.684,281.355v1.346h-12.841v-18.251h12.297v1.346h-10.821v7.378h9.216v1.347h-9.216v6.835
			H183.684z"/>
		<path style="fill:#F69240;" d="M213.402,276.643c-0.44,0.078-0.958,0.104-1.45,0.104h-4.971v5.954h-1.501v-18.251h7.223
			c4.815,0,6.498,2.873,6.498,5.954c0,3.314-1.631,5.204-4.272,5.955l4.764,6.343h-1.838L213.402,276.643z M206.981,275.426h4.945
			c3.443,0,5.695-1.554,5.695-4.945c0-2.433-1.32-4.686-5.1-4.686h-5.54V275.426z"/>
		<path style="fill:#F69240;" d="M253.943,281.355v1.346h-12.841v-18.251h12.297v1.346h-10.822v7.378h9.217v1.347h-9.217v6.835
			H253.943z"/>
		<path style="fill:#F69240;" d="M283.661,276.643c-0.44,0.078-0.958,0.104-1.45,0.104h-4.971v5.954h-1.501v-18.251h7.223
			c4.816,0,6.498,2.873,6.498,5.954c0,3.314-1.631,5.204-4.272,5.955l4.764,6.343h-1.838L283.661,276.643z M277.24,275.426h4.944
			c3.444,0,5.696-1.554,5.696-4.945c0-2.433-1.32-4.686-5.1-4.686h-5.54V275.426z"/>
		<path style="fill:#F69240;" d="M324.072,277.885c0,3.158-2.615,4.919-6.602,4.919c-2.925,0-4.167-0.233-7.067-1.683l0.595-1.216
			c2.667,1.294,3.91,1.528,6.524,1.528c3.029,0,5.022-1.217,5.022-3.469c0-2.227-2.278-2.977-5.256-3.702
			c-3.624-0.881-6.732-1.864-6.732-5.075c0-2.848,2.409-4.841,6.291-4.841c2.227,0,4.868,0.57,6.473,1.424
			c-0.129,0.284-0.518,0.983-0.648,1.243c-1.501-0.777-4.013-1.295-5.851-1.295c-2.952,0-4.712,1.398-4.712,3.392
			c0,2.2,2.408,2.977,5.592,3.754C321.224,273.717,324.072,274.752,324.072,277.885z"/>
	</g>
	<g>
		<path style="fill:#F69240;" d="M68.061,248.927c-2.621,1.31-6.833,2.901-9.547,2.901c3.088-4.398,9.266-12.073,13.102-16.752
			c-3.65,0.28-7.394,0.561-10.856,0.749c0-0.655,3.93-3.931,5.709-4.867c3.089-0.281,5.522-0.188,9.079-0.562
			c11.417-12.915,20.308-22.648,23.959-26.766c0.561-0.655,1.497-2.246,1.591-2.808c2.62-1.31,5.896-2.246,8.985-2.246
			c-0.936,13.477-2.153,37.061-3.369,48.198c-1.872,2.339-7.3,5.615-9.828,5.615c1.217-6.364,2.34-15.63,2.808-21.526
			c-0.842,0.374-3.182,1.592-4.586,1.966c-2.339,0.561-9.547,1.31-17.969,1.872C72.459,240.971,69.745,245.463,68.061,248.927z
			 M80.321,230.396c11.044-0.281,16.753-0.468,19.466-0.935c0.655-6.458,1.123-15.162,1.404-21.994
			C92.955,214.486,85.936,222.722,80.321,230.396z"/>
		<path style="fill:#F69240;" d="M149.111,244.902c0,0.655,0,1.216,0.094,1.684c-2.246,2.715-6.552,4.587-8.517,4.587
			c0-7.3,0.935-13.758,2.807-20.215c-5.709,6.644-20.122,20.402-25.456,20.402c-1.777,0-2.714-1.497-2.714-4.96
			c0-5.241,3.65-14.6,10.014-20.308c8.797-7.956,14.6-9.172,22.368-9.172c3.463-9.64,7.206-18.624,10.669-25.268
			c1.684-1.404,4.679-2.715,7.113-2.715c-3.088,5.615-7.955,18.157-11.043,27.048C151.171,225.343,149.111,236.76,149.111,244.902z
			 M123.75,240.317c0,2.152,0.561,2.995,1.684,2.995c2.433,0,5.803-2.153,9.078-5.522c6.738-6.738,9.172-10.763,11.231-16.004
			c-1.404-0.561-4.024-1.03-6.738-1.03c-2.339,0-5.709,0.655-8.423,3.369C126.744,227.963,123.75,234.607,123.75,240.317z"/>
		<path style="fill:#F69240;" d="M184.023,225.155c-3.744,0-6.457,1.778-8.985,4.211c-5.615,5.615-8.517,12.635-10.669,18.063
			c-2.527,2.152-6.177,3.182-8.142,3.182c4.399-10.294,7.675-21.994,8.423-27.889c1.31-1.685,7.299-4.587,8.985-4.587
			c0,1.966-1.778,9.266-3.838,14.225c7.487-8.048,13.383-13.944,18.718-13.944c0.749,0,1.592,0.093,2.153,0.374
			c-0.093,1.216-2.62,4.773-4.68,6.364H184.023z"/>
		<path style="fill:#F69240;" d="M203.959,218.042c-3.65,7.675-7.768,18.905-7.768,27.047c-1.965,2.153-6.926,5.429-9.079,5.522
			c0-6.738,6.084-23.491,8.33-28.732C197.407,220.382,202.18,218.042,203.959,218.042z M210.416,204.004
			c0,2.901-2.62,5.802-5.148,5.802c-1.965,0-2.807-1.404-2.807-3.182c0-3.276,2.526-5.803,5.147-5.803
			C209.105,200.822,210.416,201.758,210.416,204.004z"/>
		<path style="fill:#F69240;" d="M237.275,217.012c1.778,0,4.118,0.281,5.615,0.562c-3.65,8.985-7.019,18.25-7.019,26.486
			c0,0.654,0.188,1.123,0.281,1.684c-2.246,2.714-6.738,4.867-8.61,4.867c0-7.299,1.123-11.886,2.995-18.156
			c-5.709,6.644-16.939,18.53-23.491,18.53c-2.339,0-3.276-2.153-3.276-4.025c0-5.053,3.183-13.57,9.453-19.841
			C221.833,218.604,228.946,217.012,237.275,217.012z M212.474,240.691c0,1.965,0.28,3.088,1.216,3.088
			c2.714,0,5.99-2.339,9.172-5.522c6.083-6.176,8.984-12.073,10.762-16.097c-1.404-0.749-3.65-1.31-6.083-1.31
			c-2.059,0-5.709,0.842-8.329,3.463C215.469,228.056,212.474,236.385,212.474,240.691z"/>
		<path style="fill:#F69240;" d="M282.761,220.663c0,4.96-5.428,20.871-7.393,25.737c-0.655,1.216-7.019,4.773-8.891,4.773
			c2.902-8.236,7.861-22.649,7.861-25.082c0-0.843-0.374-1.123-1.404-1.123c-1.497,0-5.709,2.152-11.792,8.329
			c-2.808,2.807-5.522,7.299-7.768,11.792c-2.153,2.059-7.3,4.773-9.172,4.773c3.65-9.452,6.552-19.185,7.113-26.298
			c2.059-2.714,7.768-6.552,9.921-6.552c-0.655,4.025-2.715,12.354-4.306,17.315c6.926-7.3,21.526-16.004,24.521-16.004
			C282.574,218.323,282.761,219.165,282.761,220.663z"/>
		<path style="fill:#F69240;" d="M307.845,197.827c-2.246,6.645-7.487,15.162-12.541,19.28c-0.935,0.468-2.433,0.654-3.744,0.654
			c4.025-5.053,6.645-12.821,7.206-17.22C302.137,198.482,303.914,197.734,307.845,197.827z"/>
		<path style="fill:#F69240;" d="M315.988,230.489c4.586,2.434,7.768,4.492,7.768,8.236c0,1.872-0.936,3.369-2.246,4.68
			c-4.492,4.492-12.541,7.674-18.905,7.674c-6.083,0-9.359-2.901-9.359-6.176c0.655-1.965,2.62-4.586,4.586-5.148
			c1.123,5.054,4.306,8.798,8.984,8.798c2.527,0,4.867-0.749,6.645-2.434c1.684-1.591,2.246-2.995,2.246-4.305
			c0-2.059-1.778-4.025-6.457-6.552c-5.709-3.088-7.206-4.96-7.206-7.58c0-1.311,0.749-2.62,1.777-3.65
			c3.088-3.088,10.482-7.019,19.654-7.019c1.591,0,3.556,0.374,4.586,0.843c0,1.31-2.62,3.744-4.025,4.398
			c-1.497-1.31-4.118-2.339-6.364-2.339c-2.901,0-5.334,0.749-6.832,2.246c-0.561,0.562-1.123,1.404-1.123,2.246
			C309.717,226.371,310.747,227.775,315.988,230.489z"/>
	</g>
	<rect x="58.215" y="257.856" style="fill:#F69240;" width="270.145" height="0.949"/>
</g>
</svg>
