<?xml version="1.0" encoding="utf-8"?>
<!-- Generator: Adobe Illustrator 19.1.0, SVG Export Plug-In . SVG Version: 6.00 Build 0)  -->
<svg version="1.1" id="Layer_1" xmlns="http://www.w3.org/2000/svg" xmlns:xlink="http://www.w3.org/1999/xlink" x="0px" y="0px"
	 viewBox="0 0 452.9 362.4" style="enable-background:new 0 0 452.9 362.4;" xml:space="preserve">
<style type="text/css">
	.st0{fill:#F79240;}
</style>
<g>
	
		<ellipse transform="matrix(0.7511 0.6602 -0.6602 0.7511 150.5681 -136.1136)" class="st0" cx="255.8" cy="131.6" rx="19.3" ry="43.7"/>
	
		<ellipse transform="matrix(0.9983 -5.801162e-02 5.801162e-02 0.9983 -13.161 5.6125)" class="st0" cx="90.1" cy="229.5" rx="51.6" ry="3.3"/>
	<path class="st0" d="M306.3,148.8c0.2-0.8,0.5-1.6,0.7-2.4c0.9-3.1,1.7-6.1,2.8-9c0.5-1.5,1-3,1.5-4.4c0.5-1.5,1.1-2.9,1.7-4.3
		c0.6-1.4,1.1-2.9,1.7-4.3c0.6-1.4,1.3-2.8,1.9-4.1c5.1-11,11.2-21,18.3-29.6c7-8.5,14.8-15.8,22.7-21.5
		c7.9-5.7,15.9-10.1,23.3-13.4c7.4-3.2,14.2-5.5,19.9-7c5.7-1.5,10.3-2.4,13.4-2.8c3.2-0.5,4.9-0.6,4.9-0.6s-1.7-0.3-4.9-0.4
		c-3.2-0.1-8-0.3-14,0.3c-6,0.6-13.4,1.7-21.6,4c-8.2,2.3-17.3,5.9-26.6,11.2c-9.3,5.3-18.6,12.4-27.2,21.3
		c-8.6,8.9-16.2,19.6-22.5,31.4c-0.8,1.5-1.6,3-2.4,4.5c-0.7,1.5-1.4,3.1-2.1,4.6c-0.7,1.6-1.4,3.1-2.1,4.7
		c-0.6,1.6-1.2,3.2-1.9,4.8c-1.3,3.2-2.4,6.5-3.4,9.8c-0.6,1.9-1.2,3.8-1.8,5.7v0c0,0-0.2,0.2-0.2,0.6c-0.3,1.1-0.7,2.2-1,3.3
		c-0.5,1.6-1,3.2-1.5,4.8l-1.6,4.5c-1,3-2.2,6.1-3.4,9.1c-2.4,6.1-5.1,12.1-8,17.9c-5.7,11.7-12.7,22.7-20.6,32.4
		c-3.9,4.9-8.3,9.4-12.7,13.6c-2.3,2-4.5,4.1-6.9,5.9c-1.2,0.9-2.4,1.9-3.6,2.8c-1.2,0.9-2.5,1.7-3.7,2.6c-1.2,0.9-2.5,1.7-3.7,2.4
		c-1.3,0.8-2.5,1.5-3.8,2.3c-1.3,0.7-2.6,1.3-3.9,2c-1.3,0.7-2.6,1.4-3.9,1.9c-1.3,0.6-2.6,1.2-3.9,1.7c-1.3,0.6-2.6,1-4,1.5
		c-2.6,1-5.3,1.8-7.9,2.6c-10.6,3.1-21.1,4.2-30.9,4.3c-9.8,0.1-18.9-0.9-26.9-2.2c-4-0.5-7.7-1.5-11.2-2.2
		c-3.5-0.8-6.6-1.7-9.5-2.4c-2.8-0.9-5.4-1.6-7.6-2.3c-2.2-0.6-4.1-1.4-5.6-1.8c-3-1-4.7-1.5-4.7-1.5s1.5,0.9,4.2,2.5
		c2.8,1.7,6.9,3.9,12.3,6.5c2.8,1.2,5.8,2.6,9.2,4c3.4,1.3,7.1,2.8,11.2,4c4,1.4,8.4,2.4,13.1,3.6c2.4,0.4,4.8,0.9,7.3,1.4
		c2.5,0.4,5.1,0.7,7.7,1c10.6,1,22.3,0.9,34.5-1.5c3-0.6,6.1-1.3,9.2-2.2c1.5-0.5,3.1-0.9,4.6-1.4c1.5-0.6,3.1-1.1,4.6-1.7
		c3.1-1.1,6.1-2.6,9.2-3.9c1.5-0.8,3-1.6,4.5-2.4c1.5-0.8,3-1.6,4.4-2.5c11.7-7,22.6-16.3,31.7-27.2c9.3-10.8,17-22.9,23.4-35.6
		c1.3-2.6,2.5-5.2,3.7-7.9c0.7,3,1.4,6,2.3,9.1c1.2,4.4,2.8,8.9,4.5,13.4c1.8,4.5,3.7,8.9,6,13.3l1.7,3.2l1.9,3.1
		c1.2,2.1,2.6,4.1,3.9,6.1c1.3,2,2.8,3.8,4.2,5.7c1.4,1.8,3,3.6,4.4,5.3c1.6,1.6,3.1,3.3,4.6,4.8c1.6,1.5,3.2,2.9,4.7,4.3
		c1.6,1.3,3.2,2.6,4.7,3.8c1.5,1.2,3.1,2.2,4.5,3.3c1.4,1.1,2.9,1.9,4.3,2.8c1.4,0.8,2.7,1.7,4,2.3c2.6,1.3,4.8,2.5,6.7,3.3
		c3.8,1.6,6,2.5,6,2.5s-2-1.2-5.6-3.2c-1.8-1-3.8-2.5-6.2-4.1c-1.2-0.8-2.3-1.8-3.6-2.7c-1.3-1-2.6-2-3.8-3.2
		c-1.3-1.2-2.7-2.3-4-3.7c-1.3-1.3-2.6-2.7-4-4.1c-1.3-1.5-2.6-3-3.9-4.6c-1.2-1.7-2.5-3.3-3.8-5.1c-1.2-1.8-2.4-3.6-3.5-5.5
		c-1.1-1.9-2.3-3.8-3.2-5.8c-1-2-2.1-4-2.9-6.1l-1.4-3.1l-1.2-3.2c-1.6-4.2-2.9-8.6-4.1-12.9c-1.1-4.3-2-8.6-2.6-12.8
		c-0.7-4.2-1.1-8.2-1.5-12.1c-0.3-3.9-0.5-7.5-0.5-10.9c-0.1-6.7,0.3-12.3,0.6-16.2c0.2-1.9,0.4-3.4,0.5-4.4"/>
	<path class="st0" d="M55.7,222.5c-3.5-3.6-7.1-7.1-10.8-10.5c-2.6-2.5-5.2-4.9-7.8-7.3l8.3-0.4c4.2-0.2,8.3-0.5,12.5-0.7
		c4.2-0.2,8.3-0.5,12.5-0.9c4.2-0.3,8.3-0.6,12.5-1l12.5-1.1c4.2-0.3,8.3-0.8,12.5-1.2c4.2-0.4,8.3-0.8,12.5-1.3
		c2.9-0.3,5.7-0.7,8.6-1c-2,2.5-3.9,5.1-5.9,7.7c-2.8,3.6-5.5,7.3-8.1,11.1c3.3-3.2,6.5-6.5,9.6-9.8c3.2-3.3,6.3-6.6,9.4-10
		c0.3-0.3,0.4-0.7,0.4-1.2c0-0.9-0.8-1.6-1.7-1.6l-0.2,0c-4.2,0.1-8.4,0.4-12.5,0.6c-4.2,0.2-8.3,0.4-12.5,0.7
		c-4.2,0.3-8.3,0.5-12.5,0.8l-12.5,0.9c-4.2,0.3-8.3,0.7-12.5,1.1c-4.2,0.4-8.3,0.7-12.5,1.2c-4.2,0.4-8.3,0.8-12.5,1.3l-12.5,1.4
		l-0.1,0c-0.5,0.1-0.9,0.3-1.2,0.7c-0.6,0.8-0.5,1.9,0.3,2.5c4,3.1,7.9,6.2,11.9,9.2C47.6,216.6,51.6,219.6,55.7,222.5z"/>
	<path class="st0" d="M70,181.7c1.7,1.1,3.3,2,4.9,2.7c3.2,1.4,6,2.2,7.9,2.6c2,0.5,3.1,0.6,3.1,0.6l0-0.2c0,0-1.1-0.2-3.1-0.8
		c-1.9-0.6-4.7-1.5-7.7-3c-1.5-0.7-3.1-1.7-4.7-2.9c-1.5-1.2-3-2.6-4-4.4c-1-1.8-1.5-3.9-1.1-6c0.3-2.1,1.3-4.1,2.4-6
		c0.6-0.9,1.3-1.8,2-2.7c0.8-0.8,1.5-1.7,2.3-2.5c0.8-0.8,1.6-1.5,2.4-2.3c0.8-0.7,1.6-1.4,2.5-2.1c1.6-1.4,3.3-2.6,4.8-3.9
		c1.6-1.2,3-2.3,4.4-3.3c1.4-1,2.7-1.9,3.8-2.8c1.1-0.8,2.2-1.5,3-2.1c1.6-1.2,2.6-1.9,2.6-1.9l-0.1-0.2c0,0-1,0.5-2.8,1.4
		c-1.8,0.9-4.3,2.3-7.3,4.1c-1.5,0.9-3,2-4.7,3.1c-1.6,1.1-3.3,2.4-5,3.8c-0.8,0.7-1.6,1.5-2.5,2.2c-0.8,0.8-1.6,1.6-2.4,2.5
		c-0.8,0.8-1.5,1.8-2.2,2.7c-0.7,0.9-1.4,1.9-2,2.9c-1.2,2.1-2.2,4.3-2.4,6.7c-0.3,2.4,0.3,4.9,1.5,6.8
		C66.7,179.1,68.3,180.5,70,181.7z"/>
	<polygon class="st0" points="297.5,212.1 287.3,219.1 278.9,216.8 280.9,226.1 287.4,222.6 296.9,224.9 	"/>
	<path class="st0" d="M289.5,227.8c0,0,0.8,1.7,2.5,4.1c0.9,1.2,1.9,2.6,3.1,3.9c1.2,1.4,2.6,2.7,4.1,4c0.8,0.6,1.5,1.2,2.4,1.7
		c0.8,0.5,1.6,1.1,2.4,1.4c0.8,0.4,1.6,0.8,2.4,1.1c0.8,0.3,1.5,0.6,2.3,0.7c0.7,0.2,1.4,0.3,2,0.4c0.6,0.1,1.1,0.1,1.6,0.1
		c0.9,0.1,1.4,0.1,1.4,0.1s-0.5,0-1.4,0c-0.4,0-1,0-1.6,0c-0.6-0.1-1.3-0.2-2-0.3c-0.8-0.1-1.5-0.4-2.4-0.6
		c-0.8-0.2-1.7-0.6-2.6-0.9c-0.9-0.3-1.7-0.8-2.6-1.3c-0.9-0.5-1.7-1.1-2.6-1.6c-1.6-1.2-3.2-2.5-4.5-3.8c-1.4-1.3-2.5-2.7-3.5-3.8
		c-1.9-2.4-3-4.2-3-4.2S287.8,227,289.5,227.8z"/>
</g>
</svg>
